<svg xmlns="http://www.w3.org/2000/svg" xmlns:xlink="http://www.w3.org/1999/xlink" preserveAspectRatio="xMidYMid" width="41.12" height="41.12" viewBox="0 0 61 61">
  <defs>
    <style>
      .cls-1 {
        fill: #fff;
        fill-rule: evenodd;
      }
    </style>
  </defs>
  <path d="M59.217,49.351 L31.632,60.766 C31.285,60.916 30.902,60.998 30.500,60.998 C30.098,60.998 29.715,60.916 29.368,60.766 L1.783,49.351 C0.737,48.925 -0.000,47.900 -0.000,46.700 L-0.000,2.858 C-0.000,1.278 1.280,-0.002 2.859,-0.002 C3.247,-0.002 3.615,0.076 3.952,0.216 L3.953,0.216 L3.957,0.217 C3.966,0.221 3.974,0.224 3.983,0.227 L30.500,11.201 L57.017,0.227 C57.026,0.224 57.034,0.221 57.042,0.217 L57.047,0.216 L57.047,0.216 C57.384,0.076 57.753,-0.002 58.141,-0.002 C59.720,-0.002 61.000,1.278 61.000,2.858 L61.000,46.700 C61.000,47.900 60.263,48.925 59.217,49.351 ZM27.641,16.206 L5.719,7.136 L5.719,44.791 L27.641,53.861 L27.641,16.206 ZM55.281,7.136 L33.359,16.206 L33.359,53.861 L55.281,44.791 L55.281,7.136 ZM37.895,20.270 L48.379,15.505 L48.379,15.505 C48.740,15.339 49.140,15.247 49.562,15.247 C51.142,15.247 52.422,16.528 52.422,18.108 C52.422,19.264 51.734,20.261 50.745,20.711 L50.745,20.711 L40.261,25.476 L40.261,25.475 C39.901,25.639 39.500,25.732 39.078,25.732 C37.499,25.732 36.219,24.452 36.219,22.873 C36.219,21.716 36.906,20.720 37.895,20.270 ZM37.895,30.753 L37.895,30.753 L48.379,25.990 L48.379,25.990 C48.740,25.825 49.140,25.732 49.562,25.732 C51.142,25.732 52.422,27.012 52.422,28.592 C52.422,29.749 51.734,30.746 50.745,31.195 L40.261,35.961 L40.261,35.961 C39.901,36.125 39.500,36.218 39.078,36.218 C37.499,36.218 36.219,34.937 36.219,33.357 C36.219,32.201 36.906,31.204 37.895,30.753 ZM37.895,41.239 L37.895,41.239 L48.379,36.472 L48.379,36.473 C48.740,36.308 49.140,36.218 49.562,36.218 C51.142,36.218 52.422,37.497 52.422,39.075 C52.422,40.234 51.734,41.228 50.745,41.679 L50.745,41.679 L40.261,46.445 L40.261,46.445 C39.901,46.610 39.500,46.700 39.078,46.700 C37.499,46.700 36.219,45.421 36.219,43.843 C36.219,42.684 36.906,41.690 37.895,41.239 ZM11.437,15.247 C11.860,15.247 12.260,15.339 12.621,15.505 L12.621,15.505 L23.105,20.270 L23.105,20.270 C24.094,20.720 24.781,21.716 24.781,22.873 C24.781,24.452 23.501,25.732 21.922,25.732 C21.500,25.732 21.099,25.639 20.739,25.475 L20.739,25.476 L10.254,20.711 L10.254,20.711 C9.266,20.261 8.578,19.264 8.578,18.108 C8.578,16.528 9.858,15.247 11.437,15.247 ZM11.437,25.732 C11.860,25.732 12.260,25.825 12.621,25.990 L12.621,25.990 L23.105,30.753 L23.105,30.753 C24.094,31.204 24.781,32.201 24.781,33.357 C24.781,34.937 23.501,36.218 21.922,36.218 C21.500,36.218 21.099,36.125 20.739,35.961 L20.739,35.961 L10.254,31.195 L10.254,31.195 C9.266,30.746 8.578,29.749 8.578,28.592 C8.578,27.012 9.858,25.732 11.437,25.732 ZM11.437,36.218 C11.860,36.218 12.260,36.308 12.621,36.473 L12.621,36.472 L23.105,41.239 L23.105,41.239 C24.094,41.690 24.781,42.684 24.781,43.843 C24.781,45.421 23.501,46.700 21.922,46.700 C21.500,46.700 21.099,46.610 20.739,46.445 L20.739,46.445 L10.254,41.679 L10.254,41.679 C9.266,41.228 8.578,40.234 8.578,39.075 C8.578,37.497 9.858,36.218 11.437,36.218 Z" class="cls-1"/>
</svg>
