<svg xmlns="http://www.w3.org/2000/svg" xmlns:xlink="http://www.w3.org/1999/xlink" preserveAspectRatio="xMidYMid" width="41.794" height="37.75" viewBox="0 0 62 56">
  <defs>
    <style>
      .cls-1 {
        fill: #fff;
        fill-rule: evenodd;
      }
    </style>
  </defs>
  <path d="M59.000,45.998 L44.000,45.998 L40.000,45.998 L40.000,50.998 L44.000,54.998 L44.000,55.999 L18.000,55.999 L18.000,54.998 L22.000,50.998 L22.000,45.998 L18.000,45.998 L3.000,45.998 C1.343,45.998 -0.000,44.655 -0.000,42.999 L-0.000,2.998 C-0.000,1.341 1.343,-0.002 3.000,-0.002 L59.000,-0.002 C60.657,-0.002 62.000,1.341 62.000,2.998 L62.000,42.999 C62.000,44.655 60.657,45.998 59.000,45.998 ZM58.000,3.999 L4.000,3.999 L4.000,37.999 L58.000,37.999 L58.000,3.999 Z" class="cls-1"/>
</svg>
