<svg xmlns="http://www.w3.org/2000/svg" id="_x31_" viewBox="0 0 841.9 140"><style>.st0{fill-rule:evenodd;clip-rule:evenodd;fill:#E83A95;} .st1{fill-rule:evenodd;clip-rule:evenodd;fill:#FFFFFF;}</style><path d="M542.9 20c13.7 0 25.3 5.9 31.8 13.5 20 23.6 17.8 88.4-33.1 88.4-24.9 0-39.7-17-43-40.2-.3-2.3-1-9.2-1-11 1.1-27.3 16.2-50.7 45.3-50.7zm-57.3 52.7c0 18.3 6.3 33 14.8 43.1 17 20.1 53 23.2 73.9 7.7 2.5-1.8 6.1-4.5 7.9-6.8 5-6.3 7.6-9.4 11-17.7 6.7-16.7 7-41.8-.4-58.3-2.2-4.9-8-14.2-11.9-17.4-5.9-4.9-9.7-7.8-17.7-10.9-7.9-3-15.7-3.8-25.1-3-33.1 2.7-52.5 27.3-52.5 63.3z" class="st0"/><path d="M737.4 30c.3 3.5 3.1 9.9 4.4 13.6L756.7 84h-39.3c.2-2.5 3.5-10.7 4.6-13.4 1.8-4.7 3.3-9.1 4.8-13.8 1.5-4.4 3.4-8.9 5-13.6 1-2.8 1.5-4.1 2.5-6.8.9-2.5 1.4-5.1 3.1-6.4zm-50.6 101.3h12.7c1.1-2.3 2.4-6.3 3.3-8.7l10.1-27.2h48l13.3 36h12.7c-.3-3.7-9.4-26.1-10.9-30.4-9.4-27.2-21.3-56.1-31.1-83.4-3-8.2-.5-6.7-11.2-6.7-2.3 0-5.3 10.6-6.6 14.1-9.8 27.1-21.8 56.2-31.5 83.1l-8.8 23.2zM608.2 12.7v118.6h12V76.7c3 2 3.6 4 6.2 6.5l42.5 48.1h16c-.5-1.9-4.5-6.2-6.2-7.8L637 77.3c-2.6-3.2-4.7-4-6.8-7.9 1.8-3.3 10-11.1 12.8-14.6l12.9-14.4c4.1-5.3 24.7-25.7 25.6-29.7-2.5 0-12.1-.3-13.8.2-2 .6-10.8 11.6-13.6 14.3-5.5 5.4-14.2 16.2-20 22-3.3 3.2-10.4 12.5-13.8 14.8l.1-46.7c0-5.5.8-4.6-10-4.6-1.8 0-2.2.5-2.2 2zM33.3 123.3H14V72.7h14c20.1 0 36.6 4.5 36.6 24.6 0 19-12.1 26-31.3 26zm-.6-58.6H14V19.4c12.7 0 30.6-2 38.8 5.1 10.6 9.2 8.7 40.2-20.1 40.2zM5.4 131.3H38c33.6 0 43.1-35 30.2-52.2-4.9-6.5-9.6-8.7-17.3-10.7 0 0-1.4-.4-1.5-.5-1.4-.5-.5-.1-1.4-.6 26.3-6.1 30.6-56.6-11.3-56.6H5.4v120.6zM283.1 89.3c0-26.1 22.4-47 44.2-34.9 2.5 1.4 6.5 4.3 8.2 6.4 1.3 1.6 1.9 2.4 3.3 4 .8.9 2.9 3.4 2.9 4.5V108c0 2.4-12.7 17.3-25.3 17.3-10.8 0-19.6-.7-26.5-11.4-3.9-6-6.8-15-6.8-24.6zm58.6-28.6c-2-1.5-.8-.8-2.3-3-19.5-28.5-65-12.7-65 31 0 41.4 36.7 52.3 56.1 40.1 6.3-4 9.4-10.2 11.2-11.5 0 15.8-1.8 14 6.7 14 1.5 0 2-.5 2-2V4.1c-9.6 0-8.8-.8-8.7 5.3v51.3z" class="st1"/><path d="M390.4 125.3c-6.5 0-12.4.3-17.4-4.6-6.2-6.1-13.4-32.7 28.7-32.7 5.5 0 8.7.9 13.3 1.3V104c0 7.1-.1 7.8-3.8 11.5-3.3 3.2-4.2 4.5-8.6 6.7-3.6 1.8-7 3.1-12.2 3.1zm-26.7-70l5.2 5.5c3.4-3 6.7-5.5 11.1-7.2 16.3-6.5 32.9-3.1 35 16.5.2 2.1 0 4.4.1 6.6 0 3.3.5 3.5.7 6-14.1-3.3-31.6-2.7-43.3 4-21.2 12.2-15.8 46.6 14 46.6 12.4 0 22-6.3 29.3-14.7v12.7h8V72.7c0-15.4-9-29.3-24.6-29.3-11.4 0-19.9.4-29.6 7-1.8 1.1-5 3.6-5.9 4.9z" class="st0"/><path d="M158.6 125.3c-7.2 0-13.3.5-18.9-6.4-1.2-1.5-.7-.6-1.5-2.5-4.1-9.3-.8-19.2 8-24.1 11.6-6.5 26-3.8 37-2.9v14.7c0 7.5.2 7.6-3.8 11.5-5.7 5.5-11.4 9.7-20.8 9.7zm-26.7-70l5.2 5.5c7.3-6.5 15.7-10.1 26.1-10.1 17.6 0 20.6 14.4 20.6 32-2-.9-13.3-2-16.7-2-17.6 0-39.3 7-39.3 26.6 0 9.5 1.4 13.5 8.1 19.8 9.3 8.7 25.4 6.7 35.8 1.5 3-1.5 7.2-4.1 9.3-6.7 0 0 .9-1.2 1.2-1.5l.6-.7c.7-.8.5-.6.9-1.1v12.7h8V72.7c0-15.5-9-29.3-24.6-29.3-11.2 0-20 .4-29.6 7-1.1.8-5 4.1-5.6 4.9z" class="st1"/><path d="M433.7 12.7v118.6h58.6V120h-46.6V12.7c0-3-3.1-2-10-2-1.6 0-2 .5-2 2z" class="st0"/><path d="M211.2 58V45.4c-6.1 0-8.7-.8-8.7 2v81.9c0 2.8 2.6 2 8.7 2V68c0-3.5 11.5-17.3 24-17.3 15.8 0 21.3 12.1 21.3 28v52.6h8V72c0-12.9-11.6-28.6-26-28.6-19.1 0-21.2 10.1-27.3 14.6z" class="st1"/><path d="M797.4 112c0 26.6 32 30.1 41.8 11.1 5.4-10.4 1.1-25.5-10.9-30-16.4-6.1-30.9 4.9-30.9 18.9z" class="st0"/><path d="M91.3 58V45.4h-8v85.9h8V68.7c0-2.2 5.5-9.3 7.8-11.5 10.7-10.3 22.5-4.1 25.5-3.8.6-2.7 1.8-4.5 2-7.3-13-6.3-24.8-.9-32.8 9.1-1 1.1-1.7 1.9-2.5 2.8z" class="st1"/></svg>