<svg xmlns="http://www.w3.org/2000/svg" width="512" height="512" viewBox="0 0 512 512"><path d="M476.7 37.32l-2.02-2.02c-47.07-47.06-124.1-47.06-171.16 0L194.47 144.37c-47.07 47.06-47.07 124.1 0 171.15l2 2.02c3.93 3.92 8.08 7.46 12.38 10.73l39.92-39.93c-4.65-2.75-9.06-6.04-13.06-10.03l-2-2c-25.56-25.56-25.56-67.15 0-92.7L342.75 74.53c25.56-25.56 67.13-25.56 92.7 0l2 2c25.56 25.57 25.56 67.16 0 92.7l-49.33 49.35c8.56 21.14 12.62 43.7 12.27 66.18l76.3-76.3c47.07-47.07 47.07-124.1 0-171.16zM315.52 194.47c-3.9-3.92-8.07-7.46-12.37-10.72l-39.92 39.9c4.65 2.76 9.06 6.05 13.06 10.04l2 2.02c25.57 25.55 25.57 67.13 0 92.7L169.25 437.47c-25.56 25.55-67.14 25.55-92.7 0l-2-2.03c-25.56-25.56-25.56-67.13 0-92.7l49.33-49.33c-8.57-21.15-12.62-43.7-12.27-66.2l-76.3 76.3c-47.07 47.07-47.07 124.1 0 171.17l2 2c47.1 47.07 124.1 47.07 171.18 0l109.05-109.06c47.07-47.06 47.07-124.1 0-171.16l-2-2z"/></svg>