<svg xmlns="http://www.w3.org/2000/svg" width="522.47" height="522.47" viewBox="0 0 522.468 522.469"><path d="M325.76 70.5l-17.7-4.84c-2.28-.76-4.53-.52-6.7.7-2.2 1.25-3.68 3.1-4.44 5.58l-106.5 368.6c-.75 2.46-.52 4.8.72 6.98 1.24 2.2 3.1 3.67 5.57 4.43l17.7 4.86c2.3.77 4.53.53 6.72-.7 2.2-1.25 3.67-3.1 4.42-5.57l106.5-368.6c.76-2.47.52-4.8-.7-7-1.25-2.18-3.1-3.66-5.58-4.42zM166.17 142.47c0-2.48-.96-4.67-2.86-6.57l-14.27-14.28c-1.9-1.9-4.1-2.86-6.56-2.86s-4.67.96-6.57 2.86L2.86 254.67c-1.9 1.9-2.86 4.1-2.86 6.56 0 2.48.95 4.67 2.86 6.57L135.9 400.84c1.9 1.9 4.1 2.86 6.57 2.86s4.66-.95 6.56-2.86l14.28-14.27c1.9-1.9 2.87-4.1 2.87-6.57 0-2.47-.96-4.66-2.86-6.56L51.1 261.24l112.2-112.2c1.92-1.9 2.87-4.1 2.87-6.57zM519.6 254.66L386.58 121.62c-1.9-1.9-4.1-2.86-6.57-2.86-2.47 0-4.66.96-6.57 2.86l-14.27 14.27c-1.9 1.9-2.85 4.08-2.85 6.56s.96 4.67 2.86 6.57l112.2 112.2-112.2 112.2c-1.9 1.9-2.85 4.1-2.85 6.58 0 2.48.96 4.67 2.86 6.57l14.27 14.27c1.9 1.9 4.1 2.86 6.57 2.86 2.48 0 4.67-.95 6.57-2.86L519.6 267.8c1.92-1.9 2.87-4.1 2.87-6.57 0-2.48-.95-4.67-2.86-6.57z"/></svg>