<svg xmlns="http://www.w3.org/2000/svg" width="511.63" height="511.63" viewBox="0 0 511.626 511.626"><path d="M477.37 127.44C454.53 99.37 423.5 77.2 384.3 60.92c-39.2-16.27-82.04-24.4-128.48-24.4-34.65 0-67.77 4.8-99.36 14.4-31.6 9.62-58.8 22.6-81.65 38.97-22.84 16.36-41 35.83-54.53 58.38C6.77 170.83 0 194.48 0 219.23c0 28.55 8.6 55.3 25.84 80.23 17.22 24.93 40.77 45.87 70.66 62.8-2.1 7.62-4.57 14.86-7.42 21.7-2.86 6.86-5.43 12.48-7.7 16.86-2.3 4.37-5.4 9.23-9.3 14.56-3.9 5.33-6.84 9.1-8.84 11.27L53.4 437.5c-4.58 5.05-7.53 8.33-8.86 9.86-.2.1-.95.95-2.3 2.56l-1.98 2.43-1.72 2.56c-.95 1.44-1.38 2.35-1.28 2.72.1.37-.1 1.33-.57 2.85-.5 1.53-.44 2.67.13 3.43v.3c.76 3.42 2.43 6.18 5 8.27 2.56 2.1 5.47 2.95 8.7 2.56 12.38-1.52 23.23-3.6 32.55-6.28 49.87-12.76 93.65-35.78 131.34-69.1 14.27 1.53 28.07 2.3 41.4 2.3 46.43 0 89.26-8.15 128.47-24.43 39.2-16.27 70.22-38.44 93.06-66.5 22.85-28.07 34.27-58.68 34.27-91.8 0-33.1-11.42-63.7-34.26-91.78z"/></svg>