<svg xmlns="http://www.w3.org/2000/svg" width="438.53" height="438.53" viewBox="0 0 438.533 438.533"><path d="M409.13 109.2c-19.6-33.6-46.2-60.2-79.8-79.8C295.73 9.8 259.06 0 219.27 0 179.5 0 142.8 9.8 109.2 29.4 75.6 49 49.03 75.6 29.4 109.2 9.8 142.8 0 179.5 0 219.27c0 39.78 9.8 76.46 29.4 110.06 19.6 33.6 46.2 60.2 79.8 79.8 33.6 19.6 70.3 29.4 110.07 29.4s76.47-9.8 110.06-29.4c33.6-19.6 60.2-46.2 79.8-79.8 19.6-33.6 29.4-70.28 29.4-110.06s-9.8-76.48-29.4-110.07zM219.27 31.98c47.2 0 88.4 15.6 123.62 46.82l-3.58 5c-1.42 2-5 5.84-10.7 11.55-5.7 5.7-11.95 11.14-18.7 16.28-6.76 5.14-15.94 11-27.56 17.56-11.6 6.55-23.98 12.32-37.1 17.26-21.9-40.35-45.3-76.7-70.24-109.06 15.03-3.62 29.78-5.42 44.25-5.42zM72.52 103.06c18.28-23.03 40.54-40.73 66.8-53.1 23.6 31.4 46.83 67.38 69.67 107.92-57.87 15.23-115.54 22.84-173.02 22.84 6.1-28.74 18.27-54.63 36.54-77.66zM44.54 286.8c-8.38-21.42-12.56-43.93-12.56-67.53 0-2.67.1-4.67.28-6 68.9 0 132.96-8.85 192.15-26.55 6.1 11.8 11.15 22.36 15.14 31.7-.77.37-2 .8-3.7 1.27l-3.73 1-10.55 3.7c-7.24 2.67-16.7 7.24-28.4 13.7-11.7 6.5-24.13 14.2-37.27 23.14-13.13 8.95-26.7 20.8-40.68 35.55-14 14.74-25.74 30.58-35.26 47.52-15.23-16.94-27.03-36.12-35.4-57.53zm174.73 119.76c-44.54 0-84.32-14.28-119.34-42.83l4.28 3.15c6.67-14.66 16.47-28.75 29.42-42.26 12.94-13.5 25.4-24.4 37.4-32.7 12-8.27 25.03-16.07 39.1-23.4 14.1-7.33 23.7-12 28.85-14 5.14-2 9.23-3.56 12.28-4.7l.57-.3h.57c18.64 48.92 31.97 96.32 39.96 142.2-23.6 9.9-47.96 14.84-73.1 14.84zm157.6-86.08c-14.08 21.8-31.7 39.83-52.8 54.1-7.82-43.77-20-88.4-36.56-133.9 37.9-5.9 76.8-3.14 116.78 8.27-4.2 25.9-13.32 49.74-27.4 71.53zm26.84-103.78c-1.9-.38-4.28-.8-7.13-1.28l-10.43-1.72c-4.08-.66-8.66-1.28-13.7-1.85-5.04-.57-10.42-1.1-16.13-1.57-5.7-.48-11.8-.86-18.26-1.14-6.48-.3-13.04-.43-19.7-.43s-13.66.2-21 .58c-7.3.37-14.4 1.05-21.25 2-.6-.96-1.3-2.53-2.16-4.72-.85-2.18-1.48-3.85-1.84-5-3.63-8-7.8-17.03-12.58-27.1 13.14-5.35 25.65-11.48 37.56-18.43 11.9-6.95 21.4-13.13 28.54-18.56 7.14-5.43 13.9-11.2 20.27-17.27 6.37-6.1 10.5-10.33 12.4-12.7 1.92-2.4 3.73-4.72 5.44-7l.3-.3c27.77 33.9 41.96 72.9 42.52 117.07l-2.85-.57z"/></svg>