<svg xmlns="http://www.w3.org/2000/svg" width="475.09" height="475.09" viewBox="0 0 475.092 475.092"><path d="M273.37 302.5c-5.04-6.76-10.6-13.05-16.7-18.84-6.1-5.8-12.18-11.1-18.27-15.85-6.1-4.75-11.66-9.32-16.7-13.7-5.04-4.37-9.14-8.94-12.28-13.7-3.14-4.76-4.7-9.6-4.7-14.56 0-6.85 2.18-13.28 6.56-19.27 4.38-6 9.7-11.8 16-17.42 6.27-5.62 12.54-11.75 18.83-18.4 6.3-6.68 11.6-15.48 16-26.43 4.37-10.94 6.56-23.45 6.56-37.54 0-16.75-3.72-32.83-11.14-48.25-7.42-15.42-17.9-27.4-31.4-35.97h38.54L303.2 0H178.44c-17.7 0-35.5 1.9-53.38 5.72-26.46 5.9-48.73 19.37-66.8 40.4C40.15 67.15 31.12 91 31.12 117.64c0 28.17 10.14 51.58 30.4 70.23 20.27 18.65 44.6 27.98 72.95 27.98 5.7 0 12.37-.48 19.98-1.43-.38 1.52-1.04 3.57-2 6.14l-2.28 6.14c-.57 1.52-1.05 3.37-1.42 5.56-.4 2.2-.57 4.43-.57 6.7 0 12.58 6.07 26.76 18.26 42.55-14.47.4-28.74 1.68-42.83 3.87-14.08 2.2-28.83 5.62-44.25 10.28-15.42 4.67-29.22 11.42-41.4 20.27-12.18 8.86-21.3 19.37-27.4 31.55C3.53 361.57 0 374.4 0 386.02c0 12.75 2.87 24.3 8.57 34.7 5.7 10.36 13.04 18.83 22 25.4 8.93 6.56 19.26 12.08 30.96 16.55 11.7 4.47 23.32 7.66 34.83 9.57 11.52 1.9 22.9 2.85 34.12 2.85 51 0 90.98-12.47 119.9-37.4 26.66-23.23 39.98-50.07 39.98-80.52 0-10.86-1.57-21-4.7-30.4-3.15-9.44-7.24-17.53-12.3-24.28zM163.3 198.72c-9.7 0-18.93-2.47-27.68-7.42-8.76-4.95-16.18-11.38-22.27-19.28-6.1-7.9-11.42-16.8-16-26.7-4.56-9.9-7.93-19.78-10.12-29.68-2.2-9.9-3.3-19.32-3.3-28.27 0-18.27 4.87-33.97 14.57-47.1 9.7-13.14 23.4-19.7 41.12-19.7 12.56 0 23.93 3.9 34.1 11.7 10.2 7.8 18.2 17.7 24 29.7 5.8 11.98 10.27 24.4 13.4 37.25 3.15 12.84 4.73 24.98 4.73 36.4 0 19.03-4.14 34.32-12.42 45.83-8.3 11.5-21.66 17.27-40.12 17.27zm78.95 214.4c-5.23 8.95-12.32 15.94-21.27 20.98-8.94 5.05-18.5 8.76-28.7 11.14-10.17 2.4-20.88 3.58-32.1 3.58-12.2 0-24.28-1.44-36.27-4.3-11.98-2.84-23.45-7.17-34.4-12.98-10.93-5.8-19.8-13.8-26.54-23.98-6.76-10.2-10.14-21.75-10.14-34.7 0-11.4 2.57-21.6 7.7-30.54 5.15-8.95 11.72-16.1 19.7-21.4 8-5.34 17.33-9.72 28-13.14 10.65-3.43 20.93-5.8 30.83-7.14 9.9-1.33 19.98-2 30.26-2 6.3 0 11.05.2 14.28.57 1.15.78 4.05 2.77 8.7 6s7.82 5.44 9.44 6.58c1.6 1.14 4.56 3.32 8.85 6.56 4.28 3.24 7.32 5.66 9.13 7.28 1.8 1.62 4.42 4.05 7.85 7.28 3.42 3.24 5.95 6.04 7.57 8.42 1.6 2.38 3.6 5.28 6 8.7 2.37 3.44 4.03 6.72 5 9.86.94 3.14 1.84 6.57 2.7 10.28.85 3.72 1.28 7.56 1.28 11.57 0 11.98-2.6 22.45-7.85 31.4z"/><path d="M402 73.1V0h-36.55v73.1h-73.1v36.54h73.1v73.08H402v-73.08h73.08V73.1"/></svg>