<svg xmlns="http://www.w3.org/2000/svg" xmlns:xlink="http://www.w3.org/1999/xlink" preserveAspectRatio="xMidYMid" width="43.142" height="37.75" viewBox="0 0 64 56">
  <defs>
    <style>
      .cls-1 {
        fill: #fff;
        fill-rule: evenodd;
      }
    </style>
  </defs>
  <path d="M46.000,-0.003 C41.192,-0.003 37.338,1.725 33.939,5.125 C33.937,5.125 33.935,5.128 33.933,5.129 C33.933,5.130 33.932,5.130 33.932,5.131 L32.000,7.563 L30.068,5.276 C30.066,5.275 30.064,5.272 30.062,5.271 C30.062,5.271 30.061,5.271 30.061,5.270 L30.061,5.270 C26.661,1.871 22.808,-0.003 18.000,-0.003 C13.192,-0.003 8.671,1.871 5.272,5.270 C1.872,8.669 0.000,13.190 -0.000,17.997 C-0.000,22.803 1.870,27.321 5.266,30.720 L29.160,54.815 C29.911,55.572 30.933,55.998 32.000,55.998 C33.066,55.998 34.089,55.572 34.840,54.815 L58.732,30.720 C62.129,27.323 64.000,22.804 64.000,17.997 C64.000,13.190 62.128,8.669 58.728,5.270 C55.328,1.871 50.808,-0.003 46.000,-0.003 L46.000,-0.003 Z" class="cls-1"/>
</svg>
