<svg xmlns="http://www.w3.org/2000/svg" xmlns:xlink="http://www.w3.org/1999/xlink" preserveAspectRatio="xMidYMid" width="43.142" height="29.66" viewBox="0 0 64 44">
  <defs>
    <style>
      .cls-1 {
        fill: #fff;
        fill-rule: evenodd;
      }
    </style>
  </defs>
  <path d="M43.622,19.740 L63.106,0.865 C63.657,1.408 64.000,2.162 64.000,2.999 L64.000,40.997 C64.000,41.787 63.689,42.499 63.191,43.036 L43.622,19.740 ZM0.998,0.778 C1.530,0.299 2.227,-0.001 3.000,-0.001 L61.000,-0.001 C61.772,-0.001 62.470,0.299 63.002,0.778 L32.000,24.997 L0.998,0.778 ZM0.809,43.036 C0.311,42.499 -0.000,41.787 -0.000,40.997 L-0.000,2.999 C-0.000,2.162 0.343,1.408 0.894,0.865 L20.377,19.740 L0.809,43.036 ZM32.000,30.998 L40.136,23.116 L63.057,43.172 C62.519,43.682 61.798,43.998 61.000,43.998 L3.000,43.998 C2.201,43.998 1.481,43.682 0.943,43.171 L23.864,23.116 L32.000,30.998 Z" class="cls-1"/>
</svg>
