<svg xmlns="http://www.w3.org/2000/svg" width="430.12" height="430.12" viewBox="0 0 430.123 430.123"><path d="M412.16 246.2c1.6-10.16 2.45-20.55 2.45-31.15 0-110.22-89.33-199.56-199.55-199.56-10.57 0-21 .87-31.14 2.45C165.54 6.58 143.85 0 120.6 0 54 0 0 53.98 0 120.6c0 23.23 6.6 44.9 17.96 63.32-1.58 10.17-2.44 20.53-2.44 31.13 0 110.23 89.34 199.54 199.53 199.54 10.6 0 21-.83 31.15-2.43 18.4 11.35 40.07 17.95 63.32 17.95 66.6 0 120.6-54 120.6-120.6 0-23.25-6.58-44.92-17.96-63.32zM309.8 305.8c-8.44 12.16-20.84 21.66-37.05 28.5-16.23 6.84-35.42 10.24-57.6 10.24-26.55 0-48.54-4.65-65.9-14.03-12.3-6.7-22.3-15.73-30-26.97-7.72-11.25-11.62-22.27-11.62-33.02 0-6.32 2.4-11.84 7.12-16.33 4.75-4.53 10.87-6.8 18.1-6.8 5.92 0 11 1.8 15.15 5.32 4.1 3.52 7.55 8.66 10.37 15.43 3.38 7.85 7.05 14.42 10.96 19.65 3.88 5.17 9.34 9.5 16.4 12.87 7 3.4 16.32 5.08 27.97 5.08 15.95 0 28.83-3.45 38.7-10.25 9.9-6.87 14.67-15.22 14.67-25.32 0-8.05-2.57-14.44-7.83-19.43-5.32-5.05-12.18-8.9-20.7-11.58-8.54-2.7-20-5.58-34.4-8.6-19.3-4.22-35.44-9.13-48.52-14.76-13.1-5.67-23.52-13.4-31.25-23.16-7.75-9.86-11.6-22.1-11.6-36.63 0-13.83 4.07-26.2 12.23-36.97 8.16-10.8 19.96-19.07 35.35-24.83 15.34-5.76 33.4-8.64 54.08-8.64 16.54 0 30.84 1.9 42.96 5.72 12.06 3.84 22.13 8.9 30.18 15.25 8 6.34 13.9 13.02 17.6 20.04 3.74 7.03 5.62 13.9 5.62 20.6 0 6.25-2.42 11.9-7.13 16.86-4.7 4.96-10.74 7.5-17.77 7.47-6.34 0-11.32-1.46-14.77-4.56-3.36-3-6.9-7.77-10.7-14.42-4.83-9.27-10.6-16.5-17.33-21.67-6.54-5.07-17.34-7.7-32.36-7.68-13.9 0-25 2.84-33.4 8.4-8.45 5.64-12.5 12.2-12.5 19.86 0 4.8 1.4 8.86 4.17 12.32 2.83 3.5 6.76 6.53 11.8 9.1 5.06 2.58 10.2 4.6 15.37 6.03 5.22 1.48 13.9 3.62 25.94 6.46 15.12 3.26 28.83 6.9 41.15 10.86 12.3 4 22.78 8.8 31.45 14.52 8.73 5.7 15.56 13 20.44 21.78 4.9 8.8 7.35 19.57 7.35 32.23 0 15.24-4.24 28.95-12.7 41.08z"/></svg>