<svg xmlns="http://www.w3.org/2000/svg" xmlns:xlink="http://www.w3.org/1999/xlink" preserveAspectRatio="xMidYMid" width="48.96" height="34.526" viewBox="0 0 72.63 51.218">
  <defs>
    <style>
      .cls-1 {
        fill: #fff;
        fill-rule: evenodd;
      }
    </style>
  </defs>
  <path d="M72.616,48.943 C72.616,48.946 72.617,48.946 72.617,48.950 C72.617,50.195 71.604,51.203 70.356,51.203 L53.510,51.203 C54.772,50.924 55.718,49.806 55.718,48.464 C55.718,48.462 55.717,48.460 55.717,48.457 L55.719,48.457 C55.719,48.457 55.719,38.222 48.215,34.500 C45.007,32.911 44.795,33.214 43.203,32.837 L43.247,28.401 C43.247,28.401 41.495,27.067 40.950,22.879 C39.854,23.195 39.492,21.596 39.428,20.579 C39.369,19.596 38.793,16.525 40.130,16.803 C39.857,14.754 39.660,12.905 39.757,11.925 C40.092,8.487 43.415,4.894 48.533,4.633 C54.552,4.894 56.937,8.484 57.272,11.921 C57.369,12.901 57.155,14.752 56.881,16.799 C58.219,16.524 57.637,19.589 57.572,20.573 C57.513,21.592 57.142,23.183 56.050,22.869 C55.503,27.056 53.751,28.379 53.751,28.379 L53.792,32.807 C53.792,32.807 54.900,33.439 59.577,35.369 C64.255,37.302 62.787,35.857 66.597,37.746 C72.618,40.732 72.618,48.943 72.618,48.943 L72.616,48.943 ZM38.691,33.798 C43.832,35.924 42.219,34.334 46.407,36.411 C53.025,39.693 53.025,48.720 53.025,48.720 L53.023,48.720 C53.023,48.721 53.024,48.724 53.024,48.724 C53.024,50.094 51.911,51.203 50.538,51.203 L2.485,51.203 C1.113,51.203 -0.000,50.094 -0.000,48.724 C-0.000,48.724 0.001,48.721 0.001,48.720 L-0.001,48.720 C-0.001,48.720 -0.001,39.693 6.617,36.411 C10.804,34.334 9.192,36.020 14.333,33.894 C19.474,31.773 20.692,31.033 20.692,31.033 L20.741,26.141 C20.741,26.141 18.815,24.673 18.217,20.070 C17.012,20.419 16.614,18.660 16.543,17.544 C16.479,16.462 15.846,13.087 17.316,13.391 C17.015,11.138 16.799,9.106 16.905,8.030 C17.273,4.250 20.925,0.302 26.551,0.013 C33.168,0.302 35.789,4.247 36.157,8.027 C36.264,9.103 36.028,11.137 35.727,13.386 C37.198,13.086 36.558,16.456 36.487,17.536 C36.422,18.655 36.015,20.404 34.813,20.058 C34.212,24.660 32.287,26.117 32.287,26.117 L32.332,30.983 C32.332,30.983 33.550,31.676 38.691,33.798 Z" class="cls-1"/>
</svg>
